<mxfile host="Electron" agent="Mozilla/5.0 (Windows NT 10.0; Win64; x64) AppleWebKit/537.36 (KHTML, like Gecko) draw.io/25.0.2 Chrome/128.0.6613.186 Electron/32.2.5 Safari/537.36" version="25.0.2">
  <diagram name="Seite-1" id="0_38UXHKISA2RdHFbXtA">
    <mxGraphModel dx="1434" dy="836" grid="1" gridSize="10" guides="1" tooltips="1" connect="1" arrows="1" fold="1" page="1" pageScale="1" pageWidth="827" pageHeight="1169" math="0" shadow="0">
      <root>
        <mxCell id="0" />
        <mxCell id="1" parent="0" />
        <mxCell id="1lbPTQVTwDf_eq0lMCil-1" value="«interface»&lt;br&gt;&lt;b&gt;Callable&lt;/b&gt;" style="html=1;whiteSpace=wrap;" vertex="1" parent="1">
          <mxGeometry x="359" y="380" width="110" height="50" as="geometry" />
        </mxCell>
        <mxCell id="1lbPTQVTwDf_eq0lMCil-2" value="Clazz" style="swimlane;fontStyle=1;align=center;verticalAlign=top;childLayout=stackLayout;horizontal=1;startSize=26;horizontalStack=0;resizeParent=1;resizeParentMax=0;resizeLast=0;collapsible=1;marginBottom=0;whiteSpace=wrap;html=1;" vertex="1" parent="1">
          <mxGeometry x="294" y="570" width="240" height="90" as="geometry" />
        </mxCell>
        <mxCell id="1lbPTQVTwDf_eq0lMCil-3" value="- superClass : Clazz&lt;div&gt;- classDefNode : ClassDeffNode&lt;/div&gt;&lt;div&gt;- functions : HashMap&amp;lt;String, List&amp;lt;Func&amp;gt;&amp;gt;&lt;/div&gt;" style="text;strokeColor=none;fillColor=none;align=left;verticalAlign=top;spacingLeft=4;spacingRight=4;overflow=hidden;rotatable=0;points=[[0,0.5],[1,0.5]];portConstraint=eastwest;whiteSpace=wrap;html=1;" vertex="1" parent="1lbPTQVTwDf_eq0lMCil-2">
          <mxGeometry y="26" width="240" height="64" as="geometry" />
        </mxCell>
        <mxCell id="1lbPTQVTwDf_eq0lMCil-6" value="Instance&lt;div&gt;&lt;br&gt;&lt;/div&gt;" style="swimlane;fontStyle=1;align=center;verticalAlign=top;childLayout=stackLayout;horizontal=1;startSize=26;horizontalStack=0;resizeParent=1;resizeParentMax=0;resizeLast=0;collapsible=1;marginBottom=0;whiteSpace=wrap;html=1;" vertex="1" parent="1">
          <mxGeometry x="555" y="360" width="140" height="70" as="geometry" />
        </mxCell>
        <mxCell id="1lbPTQVTwDf_eq0lMCil-7" value="- clazz : Clazz&lt;div&gt;- interpreter : Interpreter&lt;/div&gt;" style="text;strokeColor=none;fillColor=none;align=left;verticalAlign=top;spacingLeft=4;spacingRight=4;overflow=hidden;rotatable=0;points=[[0,0.5],[1,0.5]];portConstraint=eastwest;whiteSpace=wrap;html=1;" vertex="1" parent="1lbPTQVTwDf_eq0lMCil-6">
          <mxGeometry y="26" width="140" height="44" as="geometry" />
        </mxCell>
        <mxCell id="1lbPTQVTwDf_eq0lMCil-8" value="&lt;div&gt;Environment&lt;/div&gt;" style="swimlane;fontStyle=1;align=center;verticalAlign=top;childLayout=stackLayout;horizontal=1;startSize=26;horizontalStack=0;resizeParent=1;resizeParentMax=0;resizeLast=0;collapsible=1;marginBottom=0;whiteSpace=wrap;html=1;" vertex="1" parent="1">
          <mxGeometry x="505" y="150" width="240" height="90" as="geometry" />
        </mxCell>
        <mxCell id="1lbPTQVTwDf_eq0lMCil-9" value="- enclosing : Environment&lt;div&gt;- functions : HashMap&amp;lt;String, List&amp;lt;Func&amp;gt;&amp;gt;&lt;/div&gt;&lt;div&gt;# values : HashMap&amp;lt;String, Object&amp;gt;&lt;/div&gt;" style="text;strokeColor=none;fillColor=none;align=left;verticalAlign=top;spacingLeft=4;spacingRight=4;overflow=hidden;rotatable=0;points=[[0,0.5],[1,0.5]];portConstraint=eastwest;whiteSpace=wrap;html=1;" vertex="1" parent="1lbPTQVTwDf_eq0lMCil-8">
          <mxGeometry y="26" width="240" height="64" as="geometry" />
        </mxCell>
        <mxCell id="1lbPTQVTwDf_eq0lMCil-10" value="&lt;div&gt;Value&lt;/div&gt;" style="swimlane;fontStyle=1;align=center;verticalAlign=top;childLayout=stackLayout;horizontal=1;startSize=26;horizontalStack=0;resizeParent=1;resizeParentMax=0;resizeLast=0;collapsible=1;marginBottom=0;whiteSpace=wrap;html=1;" vertex="1" parent="1">
          <mxGeometry x="330" y="700" width="160" height="52" as="geometry" />
        </mxCell>
        <mxCell id="1lbPTQVTwDf_eq0lMCil-11" value="- value : Object" style="text;strokeColor=none;fillColor=none;align=left;verticalAlign=top;spacingLeft=4;spacingRight=4;overflow=hidden;rotatable=0;points=[[0,0.5],[1,0.5]];portConstraint=eastwest;whiteSpace=wrap;html=1;" vertex="1" parent="1lbPTQVTwDf_eq0lMCil-10">
          <mxGeometry y="26" width="160" height="26" as="geometry" />
        </mxCell>
        <mxCell id="1lbPTQVTwDf_eq0lMCil-12" value="&lt;div&gt;Func&lt;/div&gt;" style="swimlane;fontStyle=1;align=center;verticalAlign=top;childLayout=stackLayout;horizontal=1;startSize=26;horizontalStack=0;resizeParent=1;resizeParentMax=0;resizeLast=0;collapsible=1;marginBottom=0;whiteSpace=wrap;html=1;" vertex="1" parent="1">
          <mxGeometry x="60" y="325" width="210" height="130" as="geometry" />
        </mxCell>
        <mxCell id="1lbPTQVTwDf_eq0lMCil-13" value="- fndefNode : FndefNode&lt;div&gt;- constructorNode : ConstructorNode&lt;/div&gt;&lt;div&gt;- operatorNopde : operatorNode&lt;/div&gt;&lt;div&gt;- environment : Environment&lt;/div&gt;&lt;div&gt;- parameters : List&amp;lt;ParamNode&amp;gt;&lt;/div&gt;&lt;div&gt;- funcName : String&lt;/div&gt;" style="text;strokeColor=none;fillColor=none;align=left;verticalAlign=top;spacingLeft=4;spacingRight=4;overflow=hidden;rotatable=0;points=[[0,0.5],[1,0.5]];portConstraint=eastwest;whiteSpace=wrap;html=1;" vertex="1" parent="1lbPTQVTwDf_eq0lMCil-12">
          <mxGeometry y="26" width="210" height="104" as="geometry" />
        </mxCell>
        <mxCell id="1lbPTQVTwDf_eq0lMCil-14" value="" style="endArrow=block;dashed=1;endFill=0;endSize=12;html=1;rounded=0;exitX=0;exitY=0.5;exitDx=0;exitDy=0;entryX=1;entryY=0.5;entryDx=0;entryDy=0;" edge="1" parent="1" source="1lbPTQVTwDf_eq0lMCil-7" target="1lbPTQVTwDf_eq0lMCil-1">
          <mxGeometry width="160" relative="1" as="geometry">
            <mxPoint x="330" y="430" as="sourcePoint" />
            <mxPoint x="490" y="430" as="targetPoint" />
          </mxGeometry>
        </mxCell>
        <mxCell id="1lbPTQVTwDf_eq0lMCil-15" value="" style="endArrow=block;dashed=1;endFill=0;endSize=12;html=1;rounded=0;exitX=0.5;exitY=0;exitDx=0;exitDy=0;entryX=0.5;entryY=1;entryDx=0;entryDy=0;" edge="1" parent="1" source="1lbPTQVTwDf_eq0lMCil-2" target="1lbPTQVTwDf_eq0lMCil-1">
          <mxGeometry width="160" relative="1" as="geometry">
            <mxPoint x="590" y="420" as="sourcePoint" />
            <mxPoint x="465" y="290" as="targetPoint" />
          </mxGeometry>
        </mxCell>
        <mxCell id="1lbPTQVTwDf_eq0lMCil-16" value="" style="endArrow=block;dashed=1;endFill=0;endSize=12;html=1;rounded=0;exitX=1;exitY=0.5;exitDx=0;exitDy=0;entryX=0;entryY=0.5;entryDx=0;entryDy=0;" edge="1" parent="1" source="1lbPTQVTwDf_eq0lMCil-13" target="1lbPTQVTwDf_eq0lMCil-1">
          <mxGeometry width="160" relative="1" as="geometry">
            <mxPoint x="410" y="420" as="sourcePoint" />
            <mxPoint x="410" y="290" as="targetPoint" />
          </mxGeometry>
        </mxCell>
        <mxCell id="1lbPTQVTwDf_eq0lMCil-17" value="" style="endArrow=block;endSize=16;endFill=0;html=1;rounded=0;entryX=0.5;entryY=1.038;entryDx=0;entryDy=0;entryPerimeter=0;exitX=0.5;exitY=0;exitDx=0;exitDy=0;" edge="1" parent="1" source="1lbPTQVTwDf_eq0lMCil-6" target="1lbPTQVTwDf_eq0lMCil-9">
          <mxGeometry width="160" relative="1" as="geometry">
            <mxPoint x="330" y="430" as="sourcePoint" />
            <mxPoint x="490" y="430" as="targetPoint" />
          </mxGeometry>
        </mxCell>
        <mxCell id="1lbPTQVTwDf_eq0lMCil-18" value="" style="endArrow=block;endFill=1;html=1;edgeStyle=orthogonalEdgeStyle;align=left;verticalAlign=top;rounded=0;exitX=0.507;exitY=1.059;exitDx=0;exitDy=0;exitPerimeter=0;entryX=1;entryY=0.5;entryDx=0;entryDy=0;" edge="1" parent="1" source="1lbPTQVTwDf_eq0lMCil-7" target="1lbPTQVTwDf_eq0lMCil-2">
          <mxGeometry x="-1" relative="1" as="geometry">
            <mxPoint x="330" y="430" as="sourcePoint" />
            <mxPoint x="490" y="430" as="targetPoint" />
            <Array as="points">
              <mxPoint x="626" y="615" />
            </Array>
          </mxGeometry>
        </mxCell>
        <mxCell id="1lbPTQVTwDf_eq0lMCil-21" value="" style="endArrow=block;endFill=1;html=1;edgeStyle=orthogonalEdgeStyle;align=left;verticalAlign=top;rounded=0;exitX=0.5;exitY=0;exitDx=0;exitDy=0;entryX=0;entryY=0.5;entryDx=0;entryDy=0;" edge="1" parent="1" source="1lbPTQVTwDf_eq0lMCil-12" target="1lbPTQVTwDf_eq0lMCil-9">
          <mxGeometry relative="1" as="geometry">
            <mxPoint x="671" y="432" as="sourcePoint" />
            <mxPoint x="540" y="220" as="targetPoint" />
          </mxGeometry>
        </mxCell>
        <mxCell id="1lbPTQVTwDf_eq0lMCil-22" value="" style="endArrow=block;endFill=1;html=1;edgeStyle=orthogonalEdgeStyle;align=left;verticalAlign=top;rounded=0;exitX=0;exitY=0.25;exitDx=0;exitDy=0;" edge="1" parent="1" source="1lbPTQVTwDf_eq0lMCil-2">
          <mxGeometry relative="1" as="geometry">
            <mxPoint x="671" y="432" as="sourcePoint" />
            <mxPoint x="320" y="567" as="targetPoint" />
            <Array as="points">
              <mxPoint x="260" y="593" />
              <mxPoint x="260" y="530" />
              <mxPoint x="320" y="530" />
              <mxPoint x="320" y="567" />
            </Array>
          </mxGeometry>
        </mxCell>
        <mxCell id="1lbPTQVTwDf_eq0lMCil-23" value="" style="endArrow=block;endFill=1;html=1;edgeStyle=orthogonalEdgeStyle;align=left;verticalAlign=top;rounded=0;exitX=0.896;exitY=-0.018;exitDx=0;exitDy=0;entryX=1;entryY=0.25;entryDx=0;entryDy=0;elbow=vertical;exitPerimeter=0;" edge="1" parent="1" source="1lbPTQVTwDf_eq0lMCil-8" target="1lbPTQVTwDf_eq0lMCil-8">
          <mxGeometry relative="1" as="geometry">
            <mxPoint x="175" y="335" as="sourcePoint" />
            <mxPoint x="590" y="249" as="targetPoint" />
            <Array as="points">
              <mxPoint x="720" y="120" />
              <mxPoint x="780" y="120" />
              <mxPoint x="780" y="173" />
            </Array>
          </mxGeometry>
        </mxCell>
      </root>
    </mxGraphModel>
  </diagram>
</mxfile>
